<svg id="レイヤー_1" data-name="レイヤー 1" xmlns="http://www.w3.org/2000/svg" width="13.02191" height="16" viewBox="0 0 13.02191 16"><title>ファイルアイコン</title><path d="M9.54851,8.93587a9.5515,9.5515,0,0,0-1.94859.18128A8.79817,8.79817,0,0,1,6.42863,7.55546C7.38988,4.78694,6.78109,4,5.96166,4c-.6435,0-.9648.68025-.89329,1.43181A7.07364,7.07364,0,0,0,5.8181,7.3602,21.81443,21.81443,0,0,1,4.71772,9.8503a9.83676,9.83676,0,0,0-1.23864.46477c-1.53559.71533-1.659,1.67046-1.33946,2.0752.60668.76882,1.89932.10551,3.19636-2.21812.888-.25292,2.05628-.58992,2.16161-.58992a.1716.1716,0,0,1,.04807.01011A4.96414,4.96414,0,0,0,9.58678,10.905a1.123,1.123,0,0,0,1.39291-.94742C10.94406,9.546,10.70407,9.0054,9.54851,8.93587ZM3.8004,11.44226c-.37531.447-.98234.87578-1.19652.73315-.21451-.14292-.25012-.55423.2323-1.01961a4.0348,4.0348,0,0,1,1.4104-.75129c.14331-.05347.17892,0,.17892.07163A3.559,3.559,0,0,1,3.8004,11.44226ZM5.44367,5.4315c-.03588-.44754.0531-.87666.42841-.93015.37471-.05408.55361.37534.41088,1.07281a5.75028,5.75028,0,0,1-.286,1.21726c-.07148.05349-.14239-.12571-.14239-.12571A3.70094,3.70094,0,0,1,5.44367,5.4315Zm.143,4.20392C5.78276,9.313,6.283,8.00778,6.283,8.00778c.10712.197.94611,1.19792.94611,1.19792S5.94328,9.49248,5.58666,9.63542Zm3.89213.57177a4.73738,4.73738,0,0,1-1.446-.71561A4.28955,4.28955,0,0,1,9.46156,9.313c.55392.036.75029.26865.75029.501C10.21185,10.04672,10.01548,10.27883,9.47879,10.20719Z" style="fill:#c00"/><path d="M8.98479,1V3.98613l.98433.01377,2.0106.0281V15H.99831V1H8.98479m.99831-1H0V16H12.978V3.0419L9.98311,3Z" style="fill:#c00"/><polyline points="13 3.057 9.948 3.057 9.948 0" style="fill:#c00"/></svg>